<svg width="16" height="16" viewBox="0 0 16 16" fill="none" xmlns="http://www.w3.org/2000/svg">
<path d="M8 0.735352C3.8645 0.735352 0.5 4.09985 0.5 8.23535C0.5 12.3709 3.8645 15.7354 8 15.7354C12.1355 15.7354 15.5 12.3709 15.5 8.23535C15.5 4.09985 12.1355 0.735352 8 0.735352ZM8 14.2354C4.69175 14.2354 2 11.5436 2 8.23535C2 4.9271 4.69175 2.23535 8 2.23535C11.3082 2.23535 14 4.9271 14 8.23535C14 11.5436 11.3082 14.2354 8 14.2354Z" fill="#B1C1D1"/>
<path d="M8.75 4.77966H7.25V9.27966H11.75V7.77966H8.75V4.77966Z" fill="#B1C1D1"/>
</svg>
